<?xml version="1.0" encoding="UTF-8" standalone="no"?>
<!-- Created with Inkscape (http://www.inkscape.org/) -->

<svg
   width="512"
   height="512"
   viewBox="0 0 135.46667 135.46667"
   version="1.1"
   id="svg1"
   xml:space="preserve"
   inkscape:export-filename="consbarcode.png"
   inkscape:export-xdpi="96"
   inkscape:export-ydpi="96"
   inkscape:version="1.4 (e7c3feb100, 2024-10-09)"
   sodipodi:docname="icon"
   xmlns:inkscape="http://www.inkscape.org/namespaces/inkscape"
   xmlns:sodipodi="http://sodipodi.sourceforge.net/DTD/sodipodi-0.dtd"
   xmlns="http://www.w3.org/2000/svg"
   xmlns:svg="http://www.w3.org/2000/svg"><sodipodi:namedview
     id="namedview1"
     pagecolor="#ffffff"
     bordercolor="#000000"
     borderopacity="0.25"
     inkscape:showpageshadow="2"
     inkscape:pageopacity="0.0"
     inkscape:pagecheckerboard="0"
     inkscape:deskcolor="#d1d1d1"
     inkscape:document-units="mm"
     inkscape:zoom="2.2072683"
     inkscape:cx="575.37182"
     inkscape:cy="353.15144"
     inkscape:window-width="1205"
     inkscape:window-height="891"
     inkscape:window-x="0"
     inkscape:window-y="0"
     inkscape:window-maximized="1"
     inkscape:current-layer="layer1" /><defs
     id="defs1"><clipPath
       clipPathUnits="userSpaceOnUse"
       id="clipPath69"><path
         d="M 0,0 H 792 V 612 H 0 Z"
         transform="translate(-274.52971,-398.77721)"
         id="path69" /></clipPath></defs><g
     inkscape:label="Layer 1"
     inkscape:groupmode="layer"
     id="layer1"><g
       id="g1"
       transform="matrix(0.57438201,0,0,0.57438201,28.828526,31.143272)"><path
         id="path68"
         d="m 0,0 c -2.55,3.26 -26.9,33.49 -30.248,37.444 -3.348,3.953 -8.165,3.991 -11.349,-0.003 -3.184,-3.993 -26.575,-32.819 -31.565,-38.203 -4.842,-5.224 -15.345,-5.607 -21.169,0.217 -5.898,5.898 -5.898,15.898 0,21.795 2.857,2.857 6.655,4.43 10.695,4.43 7.971,0 13.798,-7.532 13.798,-7.532 l 9.473,11.111 c 0,0 -8.898,10.898 -23.271,10.898 -7.979,0 -15.48,-3.107 -21.122,-8.749 -11.647,-11.647 -11.647,-30.598 0,-42.245 11.647,-11.647 31.309,-11.608 42.244,0 2.043,2.168 26.595,32.562 26.595,32.562 l 21.129,-25.97 c -4.495,-1.978 -11.729,-1.498 -15.894,2.59 l 5.828,5.828 h -22.156 v -22.156 l 6.034,6.034 c 5.37,-5.099 13.063,-7.323 20.132,-7.323 8.604,0 16.727,3.686 20.916,8.327 C 2.734,-7.994 3.057,-3.908 0,0"
         style="fill:#3aaa35;fill-opacity:1;fill-rule:nonzero;stroke:none"
         transform="matrix(1.1711005,0,0,-1.1711005,132.912,47.027883)"
         clip-path="url(#clipPath69)" /><path
         style="fill:#000000;stroke-width:0.583638"
         d="m 40.066552,75.108214 v 49.609226 h 0.583647 V 75.108214 Z m 1.167281,0 v 49.609226 h 0.583634 V 75.108214 Z m 2.334548,0 v 46.691026 h 1.16728 V 75.108214 Z m 1.750914,0 v 46.691026 h 0.583646 V 75.108214 Z m 1.16728,0 v 46.691026 h 2.334548 V 75.108214 Z m 2.918194,0 v 46.691026 h 0.583634 V 75.108214 Z m 1.167268,0 v 46.691026 h 0.583646 V 75.108214 Z m 1.16728,0 v 46.691026 h 2.334548 V 75.108214 Z m 4.085462,0 V 121.79924 H 56.99206 V 75.108214 Z m 1.750915,0 v 46.691026 h 0.583634 V 75.108214 Z m 2.334548,0 v 46.691026 h 1.16728 V 75.108214 Z m 1.750914,0 v 46.691026 h 0.583646 V 75.108214 Z m 2.334548,0 v 46.691026 h 1.16728 V 75.108214 Z m 1.750914,0 v 46.691026 h 0.583646 V 75.108214 Z m 1.16728,0 v 49.609226 h 0.583646 V 75.108214 Z m 1.16728,0 v 49.609226 h 0.583634 V 75.108214 Z m 1.167268,0 v 46.691026 h 1.16728 V 75.108214 Z m 1.750914,0 v 46.691026 h 1.16728 V 75.108214 Z m 2.334561,0 v 46.691026 h 1.750914 V 75.108214 Z m 2.334548,0 v 46.691026 h 0.583634 V 75.108214 Z m 1.750914,0 v 46.691026 h 1.16728 V 75.108214 Z m 2.334548,0 v 46.691026 h 1.16728 V 75.108214 Z m 1.750914,0 v 46.691026 h 0.583634 V 75.108214 Z m 1.16728,0 v 46.691026 h 1.750914 V 75.108214 Z m 2.918194,0 v 46.691026 h 0.583634 V 75.108214 Z m 1.750914,0 v 46.691026 h 1.750902 V 75.108214 Z m 2.334549,0 V 121.79924 H 90.84305 V 75.108214 Z m 1.750914,0 v 46.691026 h 1.16728 V 75.108214 Z m 2.334552,0 v 49.609226 h 0.58363 V 75.108214 Z m 1.16728,0 v 49.609226 h 0.58363 V 75.108214 Z M 37.766207,123.30394 c -0.476866,0 -0.841641,0.18847 -1.094327,0.56655 -0.250775,0.37616 -0.376169,0.92332 -0.376169,1.64147 0,0.71625 0.125394,1.2634 0.376169,1.64148 0.252686,0.37617 0.617461,0.56426 1.094327,0.56426 0.476866,0 0.840118,-0.18809 1.090893,-0.56426 0.252686,-0.37808 0.379603,-0.92523 0.379603,-1.64148 0,-0.71815 -0.126917,-1.26531 -0.379603,-1.64147 -0.250775,-0.37808 -0.614027,-0.56655 -1.090893,-0.56655 z m 9.161519,0 c -0.16909,0 -0.349573,0.0152 -0.541461,0.0456 -0.189989,0.0304 -0.393657,0.076 -0.61214,0.13678 v 0.51297 c 0.216584,-0.0722 0.414543,-0.12539 0.595039,-0.1596 0.180483,-0.0342 0.349573,-0.0513 0.507258,-0.0513 0.288788,0 0.510693,0.0589 0.664581,0.17669 0.155787,0.11586 0.233674,0.28308 0.233674,0.50156 0,0.21279 -0.07559,0.37618 -0.225704,0.49017 -0.150078,0.11212 -0.366674,0.16757 -0.649753,0.16757 h -0.518664 v 0.47307 h 0.495866 c 0.313484,0 0.558188,0.0718 0.732974,0.21429 0.176686,0.1406 0.264454,0.33629 0.264454,0.58706 0,0.27169 -0.09494,0.47878 -0.284978,0.62126 -0.188078,0.1425 -0.46205,0.21316 -0.823016,0.21316 -0.20709,0 -0.406199,-0.0231 -0.596176,-0.0706 -0.189989,-0.0475 -0.364775,-0.1178 -0.52436,-0.21089 v 0.55514 c 0.201382,0.0703 0.396681,0.12311 0.584771,0.15731 0.189989,0.0362 0.374282,0.0536 0.552854,0.0536 0.531968,0 0.942339,-0.11441 1.231114,-0.34425 0.288788,-0.22989 0.433169,-0.55477 0.433169,-0.97463 0,-0.27357 -0.07789,-0.50346 -0.233686,-0.68964 -0.153887,-0.18619 -0.368561,-0.30931 -0.644045,-0.3682 0.248877,-0.0627 0.440765,-0.17479 0.575652,-0.33628 0.1349,-0.16338 0.201769,-0.36288 0.201769,-0.59846 0,-0.33817 -0.127292,-0.60605 -0.381877,-0.80364 -0.254573,-0.19949 -0.600348,-0.29866 -1.037315,-0.29866 z m 4.160701,0 c -0.537664,0 -0.965523,0.19987 -1.284692,0.60074 -0.31918,0.39896 -0.478764,0.93473 -0.478764,1.60728 0,0.71625 0.129566,1.2634 0.389859,1.64148 0.260269,0.37617 0.63645,0.56426 1.128506,0.56426 0.429372,0 0.773248,-0.13147 1.031631,-0.39555 0.258382,-0.26408 0.387573,-0.61518 0.387573,-1.05215 0,-0.44647 -0.123869,-0.79832 -0.372758,-1.0567 -0.246977,-0.26028 -0.584783,-0.39099 -1.012243,-0.39099 -0.203293,1e-5 -0.389473,0.0452 -0.558563,0.13451 -0.16909,0.0874 -0.309674,0.21316 -0.421764,0.37845 0.02842,-0.51866 0.142495,-0.90623 0.341966,-1.16272 0.201382,-0.25647 0.492068,-0.38415 0.872035,-0.38415 0.144393,0 0.290299,0.0175 0.436603,0.0536 0.148179,0.036 0.294472,0.0889 0.438866,0.15731 v -0.52437 c -0.159597,-0.057 -0.313484,-0.10026 -0.461676,-0.12881 -0.14628,-0.0284 -0.292198,-0.0422 -0.436579,-0.0422 z m 3.400369,0 c -0.476866,0 -0.841641,0.18847 -1.094315,0.56655 -0.250787,0.37616 -0.376181,0.92332 -0.376181,1.64147 0,0.71625 0.125394,1.2634 0.376181,1.64148 0.252674,0.37617 0.617449,0.56426 1.094315,0.56426 0.476866,0 0.840118,-0.18809 1.090905,-0.56426 0.252674,-0.37808 0.379591,-0.92523 0.379591,-1.64148 0,-0.71815 -0.126917,-1.26531 -0.379591,-1.64147 -0.250787,-0.37808 -0.614039,-0.56655 -1.090905,-0.56655 z m 3.716139,0 c -0.476866,0 -0.841641,0.18847 -1.094327,0.56655 -0.250787,0.37616 -0.376169,0.92332 -0.376169,1.64147 0,0.71625 0.125382,1.2634 0.376169,1.64148 0.252686,0.37617 0.617461,0.56426 1.094327,0.56426 0.476866,0 0.840118,-0.18809 1.090893,-0.56426 0.252686,-0.37808 0.379591,-0.92523 0.379591,-1.64148 0,-0.71815 -0.126905,-1.26531 -0.379591,-1.64147 -0.250775,-0.37808 -0.614027,-0.56655 -1.090893,-0.56655 z m 3.716127,0 c -0.476866,0 -0.841641,0.18847 -1.094315,0.56655 -0.250787,0.37616 -0.376181,0.92332 -0.376181,1.64147 0,0.71625 0.125394,1.2634 0.376181,1.64148 0.252674,0.37617 0.617449,0.56426 1.094315,0.56426 0.476866,0 0.840118,-0.18809 1.090905,-0.56426 0.252674,-0.37808 0.379591,-0.92523 0.379591,-1.64148 0,-0.71815 -0.126917,-1.26531 -0.379591,-1.64147 -0.250787,-0.37808 -0.614039,-0.56655 -1.090905,-0.56655 z m 10.951183,0 c -0.167179,0 -0.351472,0.0231 -0.552854,0.0706 -0.201382,0.0475 -0.417966,0.1178 -0.649753,0.21088 v 0.58136 c 0.227977,-0.12728 0.442288,-0.22228 0.641771,-0.28498 0.201382,-0.0626 0.391758,-0.0935 0.572241,-0.0935 0.254585,0 0.461288,0.0706 0.618974,0.21318 0.159584,0.14248 0.239382,0.32676 0.239382,0.55285 0,0.13868 -0.03761,0.2808 -0.111751,0.42519 -0.0722,0.14249 -0.199858,0.31728 -0.384151,0.52436 -0.09687,0.11018 -0.334371,0.35565 -0.71245,0.73753 -0.376169,0.37997 -0.674063,0.68357 -0.892547,0.90966 v 0.48446 h 2.701598 v -0.48446 h -2.008534 c 0.463561,-0.47308 0.822641,-0.84127 1.077226,-1.10345 0.254584,-0.26408 0.405049,-0.42367 0.452544,-0.47876 0.172887,-0.21279 0.292198,-0.39708 0.356793,-0.55286 0.06652,-0.15769 0.09917,-0.32336 0.09917,-0.49815 0,-0.36857 -0.13109,-0.66305 -0.39327,-0.88344 -0.26218,-0.22038 -0.613652,-0.33057 -1.054428,-0.33057 z m 3.844943,0 c -0.429371,0 -0.773248,0.13147 -1.031618,0.39556 -0.258382,0.26406 -0.387574,0.61516 -0.387574,1.05213 0,0.44647 0.123495,0.79833 0.370473,1.05671 0.248888,0.25647 0.585532,0.38529 1.011106,0.38529 0.20518,0 0.392895,-0.0437 0.561973,-0.13109 0.169103,-0.0874 0.308163,-0.21279 0.418354,-0.37617 -0.02842,0.52056 -0.14287,0.90851 -0.344252,1.16499 -0.199483,0.25458 -0.489782,0.38187 -0.869761,0.38187 -0.142494,0 -0.287263,-0.0175 -0.435442,-0.0536 -0.148192,-0.0362 -0.294484,-0.0889 -0.438866,-0.1573 v 0.52435 c 0.159584,0.057 0.313472,0.10038 0.461663,0.12882 0.148192,0.0284 0.294472,0.0421 0.438866,0.0421 0.537651,0 0.965124,-0.19949 1.282405,-0.59847 0.319181,-0.40086 0.478765,-0.93663 0.478765,-1.60727 0,-0.71815 -0.130703,-1.26531 -0.390984,-1.64148 -0.258383,-0.37808 -0.633039,-0.56655 -1.125108,-0.56655 z m 20.30992,0 c -0.16719,0 -0.35148,0.0231 -0.55286,0.0706 -0.20138,0.0475 -0.41797,0.1178 -0.64976,0.21088 v 0.58136 c 0.22799,-0.12728 0.44229,-0.22228 0.64178,-0.28498 0.20138,-0.0626 0.39174,-0.0935 0.57224,-0.0935 0.25458,0 0.46129,0.0706 0.61897,0.21318 0.15958,0.14248 0.23938,0.32676 0.23938,0.55285 0,0.13868 -0.0376,0.2808 -0.11175,0.42519 -0.0722,0.14249 -0.19987,0.31728 -0.38416,0.52436 -0.0969,0.11018 -0.33437,0.35565 -0.71245,0.73753 -0.37617,0.37997 -0.67408,0.68357 -0.89255,0.90966 v 0.48446 h 2.70161 v -0.48446 h -2.00854 c 0.46356,-0.47308 0.82264,-0.84127 1.07722,-1.10345 0.25459,-0.26408 0.40505,-0.42367 0.45255,-0.47876 0.17288,-0.21279 0.29221,-0.39708 0.35679,-0.55286 0.0665,-0.15769 0.0992,-0.32336 0.0992,-0.49815 0,-0.36857 -0.13109,-0.66305 -0.39327,-0.88344 -0.26218,-0.22038 -0.61365,-0.33057 -1.05441,-0.33057 z m -16.722597,0.0764 -1.016803,0.20518 v 0.52437 l 1.0225,-0.20519 v 3.24649 H 79.36978 v 0.48446 h 2.450823 v -0.48446 h -0.940428 v -3.77085 z m 4.11282,0 -1.770289,2.6959 v 0.55629 h 1.920766 v 1.00312 h 0.573378 v -1.00312 h 0.606432 v -0.47878 h -0.606432 v -2.77341 z m 2.291238,0 v 2.13734 c 0.159584,-0.0722 0.315383,-0.12539 0.467372,-0.15959 0.153875,-0.0342 0.307775,-0.0513 0.461663,-0.0513 0.328674,0 0.588955,0.087 0.780843,0.2599 0.191876,0.17288 0.287264,0.40694 0.287264,0.70333 0,0.29638 -0.09542,0.53158 -0.287264,0.70447 -0.191888,0.17288 -0.452169,0.25875 -0.780843,0.25875 -0.203293,0 -0.396693,-0.0229 -0.579075,-0.0683 -0.182393,-0.0456 -0.359079,-0.11441 -0.530068,-0.20747 v 0.57793 c 0.197584,0.0607 0.389097,0.10643 0.573378,0.1368 0.186192,0.0304 0.368586,0.0456 0.547158,0.0456 0.518663,0 0.919928,-0.12576 1.204905,-0.37846 0.284978,-0.25458 0.427461,-0.61137 0.427461,-1.06923 0,-0.44458 -0.138698,-0.79643 -0.416068,-1.05671 -0.277382,-0.26028 -0.653551,-0.39099 -1.128518,-0.39099 -0.08357,0 -0.167191,0.007 -0.250787,0.0229 -0.08357,0.0133 -0.167179,0.0342 -0.250775,0.0626 v -1.04302 h 1.732664 v -0.48447 z m -48.942362,0.37959 c 0.298269,0 0.520937,0.14628 0.669128,0.43888 0.150091,0.29067 0.225704,0.72801 0.225704,1.31317 0,0.58326 -0.07559,1.02175 -0.225704,1.31433 -0.148191,0.29068 -0.370859,0.43543 -0.669128,0.43543 -0.296383,0 -0.520187,-0.14475 -0.670278,-0.43543 -0.148191,-0.29258 -0.22228,-0.73107 -0.22228,-1.31433 0,-0.58516 0.07414,-1.0225 0.22228,-1.31317 0.150091,-0.2926 0.373895,-0.43888 0.670278,-0.43888 z m 16.722589,0 c 0.298282,0 0.520937,0.14628 0.669129,0.43888 0.15009,0.29067 0.225703,0.72801 0.225703,1.31317 0,0.58326 -0.07559,1.02175 -0.225703,1.31433 -0.148192,0.29068 -0.370847,0.43543 -0.669129,0.43543 -0.296382,0 -0.520175,-0.14475 -0.670277,-0.43543 -0.14818,-0.29258 -0.222281,-0.73107 -0.222281,-1.31433 0,-0.58516 0.07414,-1.0225 0.222281,-1.31317 0.150102,-0.2926 0.373895,-0.43888 0.670277,-0.43888 z m 3.716139,0 c 0.298269,0 0.520937,0.14628 0.669129,0.43888 0.15009,0.29067 0.225703,0.72801 0.225703,1.31317 0,0.58326 -0.07559,1.02175 -0.225703,1.31433 -0.148192,0.29068 -0.37086,0.43543 -0.669129,0.43543 -0.296382,0 -0.520187,-0.14475 -0.670277,-0.43543 -0.148192,-0.29258 -0.222293,-0.73107 -0.222293,-1.31433 0,-0.58516 0.07414,-1.0225 0.222293,-1.31317 0.15009,-0.2926 0.373895,-0.43888 0.670277,-0.43888 z m 3.716127,0 c 0.298281,0 0.520937,0.14628 0.669129,0.43888 0.15009,0.29067 0.225703,0.72801 0.225703,1.31317 0,0.58326 -0.07559,1.02175 -0.225703,1.31433 -0.148192,0.29068 -0.370848,0.43543 -0.669129,0.43543 -0.296383,0 -0.520187,-0.14475 -0.670277,-0.43543 -0.14818,-0.29258 -0.222281,-0.73107 -0.222281,-1.31433 0,-0.58516 0.07414,-1.0225 0.222281,-1.31317 0.15009,-0.2926 0.373894,-0.43888 0.670277,-0.43888 z m 14.796126,0 c 0.258383,0 0.462051,0.0893 0.612141,0.26789 0.151989,0.17667 0.227989,0.41795 0.227989,0.72383 0,0.30779 -0.07595,0.54945 -0.227989,0.72613 -0.15009,0.17669 -0.353758,0.2656 -0.612141,0.2656 -0.258382,0 -0.463561,-0.0889 -0.61555,-0.2656 -0.15009,-0.17668 -0.225704,-0.41834 -0.225704,-0.72613 0,-0.30588 0.07559,-0.54716 0.225704,-0.72383 0.151989,-0.1786 0.357168,-0.26789 0.61555,-0.26789 z m 7.85062,0.12197 v 2.27185 h -1.453395 z m -33.724472,1.39641 c 0.258383,0 0.463187,0.0889 0.613277,0.26559 0.151989,0.17669 0.22799,0.41835 0.22799,0.72613 0,0.30587 -0.07595,0.54868 -0.22799,0.72726 -0.15009,0.17669 -0.354894,0.26445 -0.613277,0.26445 -0.258382,0 -0.463562,-0.0878 -0.615551,-0.26445 -0.15009,-0.17858 -0.224566,-0.42139 -0.224566,-0.72726 0,-0.30778 0.0745,-0.54944 0.224566,-0.72613 0.151989,-0.17669 0.357169,-0.26559 0.615551,-0.26559 z"
         id="barcode_bar1"
         inkscape:connector-curvature="0" /></g></g></svg>
